<svg width="301" height="52" viewBox="0 0 301 52" fill="none" xmlns="http://www.w3.org/2000/svg">
<path d="M18.9792 50V26.9162H16.0605V17.497H18.9792V12.8537C18.9792 8.78528 19.9742 5.71186 21.9642 3.63343C23.9984 1.51079 26.718 0.449463 30.1231 0.449463C32.1573 0.449463 34.0146 0.759016 35.695 1.37812C37.3755 1.99723 38.5252 2.57211 39.1443 3.10277L37.088 11.1954C36.0709 10.5763 34.9433 10.2667 33.7051 10.2667C31.8035 10.2667 30.8527 11.1954 30.8527 13.0527V17.497H36.1594V26.9162H30.8527V50H18.9792Z" fill="white"/>
<path d="M18.9792 50V26.9162H16.0605V17.497H18.9792V12.8537C18.9792 8.78528 19.9742 5.71186 21.9642 3.63343C23.9984 1.51079 26.718 0.449463 30.1231 0.449463C32.1573 0.449463 34.0146 0.759016 35.695 1.37812C37.3755 1.99723 38.5252 2.57211 39.1443 3.10277L37.088 11.1954C36.0709 10.5763 34.9433 10.2667 33.7051 10.2667C31.8035 10.2667 30.8527 11.1954 30.8527 13.0527V17.497H36.1594V26.9162H30.8527V50H18.9792Z" fill="url(#paint0_linear_661_2)"/>
<path d="M61.4296 16.8337H61.4959V29.5032C60.8326 29.459 59.9923 29.4369 58.9752 29.4369C56.7642 29.4369 55.0837 30.0118 53.934 31.1615C52.8284 32.3113 52.2756 33.8591 52.2756 35.8048V50H40.4021V17.497H52.2756V22.0076H52.342C54.7299 18.5583 57.7591 16.8337 61.4296 16.8337Z" fill="white"/>
<path d="M61.4296 16.8337H61.4959V29.5032C60.8326 29.459 59.9923 29.4369 58.9752 29.4369C56.7642 29.4369 55.0837 30.0118 53.934 31.1615C52.8284 32.3113 52.2756 33.8591 52.2756 35.8048V50H40.4021V17.497H52.2756V22.0076H52.342C54.7299 18.5583 57.7591 16.8337 61.4296 16.8337Z" fill="url(#paint1_linear_661_2)"/>
<path d="M96.6693 33.4832C96.6693 34.5445 96.5809 35.6058 96.404 36.6671H75.1112C75.3765 38.1707 76.1062 39.3204 77.3002 40.1164C78.5384 40.9124 80.0419 41.3104 81.8108 41.3104C84.5083 41.3104 87.0069 40.1164 89.3064 37.7285L95.409 44.4944C93.9055 46.3075 91.8713 47.7889 89.3064 48.9387C86.7415 50.0885 83.8229 50.6633 80.5505 50.6633C75.6419 50.6633 71.5735 49.0935 68.3453 45.9537C65.1171 42.7698 63.503 38.7013 63.503 33.7485C63.503 28.8399 65.0728 24.7936 68.2126 21.6096C71.3966 18.4256 75.4429 16.8337 80.3515 16.8337C85.039 16.8337 88.9305 18.4035 92.026 21.5433C95.1216 24.6388 96.6693 28.6188 96.6693 33.4832ZM80.2852 25.8549C78.9585 25.8549 77.8308 26.2529 76.9022 27.0489C75.9735 27.8007 75.3765 28.862 75.1112 30.2329H85.1938C84.6189 27.3142 82.9827 25.8549 80.2852 25.8549Z" fill="white"/>
<path d="M96.6693 33.4832C96.6693 34.5445 96.5809 35.6058 96.404 36.6671H75.1112C75.3765 38.1707 76.1062 39.3204 77.3002 40.1164C78.5384 40.9124 80.0419 41.3104 81.8108 41.3104C84.5083 41.3104 87.0069 40.1164 89.3064 37.7285L95.409 44.4944C93.9055 46.3075 91.8713 47.7889 89.3064 48.9387C86.7415 50.0885 83.8229 50.6633 80.5505 50.6633C75.6419 50.6633 71.5735 49.0935 68.3453 45.9537C65.1171 42.7698 63.503 38.7013 63.503 33.7485C63.503 28.8399 65.0728 24.7936 68.2126 21.6096C71.3966 18.4256 75.4429 16.8337 80.3515 16.8337C85.039 16.8337 88.9305 18.4035 92.026 21.5433C95.1216 24.6388 96.6693 28.6188 96.6693 33.4832ZM80.2852 25.8549C78.9585 25.8549 77.8308 26.2529 76.9022 27.0489C75.9735 27.8007 75.3765 28.862 75.1112 30.2329H85.1938C84.6189 27.3142 82.9827 25.8549 80.2852 25.8549Z" fill="url(#paint2_linear_661_2)"/>
<path d="M133.147 33.4832C133.147 34.5445 133.059 35.6058 132.882 36.6671H111.589C111.854 38.1707 112.584 39.3204 113.778 40.1164C115.016 40.9124 116.52 41.3104 118.289 41.3104C120.986 41.3104 123.485 40.1164 125.784 37.7285L131.887 44.4944C130.383 46.3075 128.349 47.7889 125.784 48.9387C123.219 50.0885 120.301 50.6633 117.028 50.6633C112.12 50.6633 108.051 49.0935 104.823 45.9537C101.595 42.7698 99.9808 38.7013 99.9808 33.7485C99.9808 28.8399 101.551 24.7936 104.69 21.6096C107.874 18.4256 111.921 16.8337 116.829 16.8337C121.517 16.8337 125.408 18.4035 128.504 21.5433C131.599 24.6388 133.147 28.6188 133.147 33.4832ZM116.763 25.8549C115.436 25.8549 114.309 26.2529 113.38 27.0489C112.451 27.8007 111.854 28.862 111.589 30.2329H121.672C121.097 27.3142 119.461 25.8549 116.763 25.8549Z" fill="white"/>
<path d="M133.147 33.4832C133.147 34.5445 133.059 35.6058 132.882 36.6671H111.589C111.854 38.1707 112.584 39.3204 113.778 40.1164C115.016 40.9124 116.52 41.3104 118.289 41.3104C120.986 41.3104 123.485 40.1164 125.784 37.7285L131.887 44.4944C130.383 46.3075 128.349 47.7889 125.784 48.9387C123.219 50.0885 120.301 50.6633 117.028 50.6633C112.12 50.6633 108.051 49.0935 104.823 45.9537C101.595 42.7698 99.9808 38.7013 99.9808 33.7485C99.9808 28.8399 101.551 24.7936 104.69 21.6096C107.874 18.4256 111.921 16.8337 116.829 16.8337C121.517 16.8337 125.408 18.4035 128.504 21.5433C131.599 24.6388 133.147 28.6188 133.147 33.4832ZM116.763 25.8549C115.436 25.8549 114.309 26.2529 113.38 27.0489C112.451 27.8007 111.854 28.862 111.589 30.2329H121.672C121.097 27.3142 119.461 25.8549 116.763 25.8549Z" fill="url(#paint3_linear_661_2)"/>
<path d="M177.121 50H162.461L153.572 35.6058H150.654V50H138.449V2.90377H157.287C162.992 2.90377 167.281 4.42943 170.156 7.48073C173.03 10.4878 174.467 14.5341 174.467 19.6196C174.467 26.4298 171.792 31.0952 166.441 33.6158V33.6822L177.121 50ZM150.654 13.9813V24.7272H154.501C156.535 24.7272 158.194 24.2629 159.476 23.3343C160.759 22.4056 161.4 21.0789 161.4 19.3543C161.4 17.8065 160.803 16.5241 159.609 15.507C158.415 14.4899 156.712 13.9813 154.501 13.9813H150.654Z" fill="white"/>
<path d="M177.121 50H162.461L153.572 35.6058H150.654V50H138.449V2.90377H157.287C162.992 2.90377 167.281 4.42943 170.156 7.48073C173.03 10.4878 174.467 14.5341 174.467 19.6196C174.467 26.4298 171.792 31.0952 166.441 33.6158V33.6822L177.121 50ZM150.654 13.9813V24.7272H154.501C156.535 24.7272 158.194 24.2629 159.476 23.3343C160.759 22.4056 161.4 21.0789 161.4 19.3543C161.4 17.8065 160.803 16.5241 159.609 15.507C158.415 14.4899 156.712 13.9813 154.501 13.9813H150.654Z" fill="url(#paint4_linear_661_2)"/>
<path d="M210.921 50L208.533 42.3718H193.409L191.021 50H177.821L194.935 2.90377H207.007L224.055 50H210.921ZM196.659 31.8249H205.282L201.037 18.2266H200.905L196.659 31.8249Z" fill="white"/>
<path d="M210.921 50L208.533 42.3718H193.409L191.021 50H177.821L194.935 2.90377H207.007L224.055 50H210.921ZM196.659 31.8249H205.282L201.037 18.2266H200.905L196.659 31.8249Z" fill="url(#paint5_linear_661_2)"/>
<path d="M242.254 50.6633C235.532 50.6633 229.717 48.1427 224.808 43.1014L231.972 34.3455C235.421 37.839 239.003 39.5858 242.718 39.5858C244.089 39.5858 245.106 39.2983 245.769 38.7235C246.433 38.1044 246.764 37.3747 246.764 36.5345C246.764 35.5616 246.366 34.7656 245.57 34.1465C244.819 33.5274 243.227 32.8198 240.794 32.0238C238.672 31.3163 236.881 30.6088 235.421 29.9012C234.006 29.1494 232.547 28.1987 231.043 27.0489C229.54 25.8549 228.39 24.3735 227.594 22.6046C226.842 20.8357 226.466 18.8015 226.466 16.502C226.466 12.4778 227.948 9.11694 230.911 6.41941C233.918 3.72188 237.677 2.32889 242.187 2.24045C248.423 2.10778 253.972 4.20832 258.837 8.54206L251.872 17.497C248.201 14.6668 245.217 13.2517 242.917 13.2517C240.706 13.2517 239.6 14.1803 239.6 16.0377C239.6 16.8779 239.998 17.6518 240.794 18.3593C241.59 19.0669 243.116 19.8628 245.371 20.7473C250.28 22.6046 253.508 24.0639 255.056 25.1252C258.372 27.3806 260.031 30.6972 260.031 35.0752C260.031 37.9054 259.478 40.3818 258.373 42.5044C257.311 44.5828 255.874 46.1969 254.061 47.3467C252.248 48.4965 250.346 49.3367 248.356 49.8674C246.411 50.398 244.376 50.6633 242.254 50.6633Z" fill="white"/>
<path d="M242.254 50.6633C235.532 50.6633 229.717 48.1427 224.808 43.1014L231.972 34.3455C235.421 37.839 239.003 39.5858 242.718 39.5858C244.089 39.5858 245.106 39.2983 245.769 38.7235C246.433 38.1044 246.764 37.3747 246.764 36.5345C246.764 35.5616 246.366 34.7656 245.57 34.1465C244.819 33.5274 243.227 32.8198 240.794 32.0238C238.672 31.3163 236.881 30.6088 235.421 29.9012C234.006 29.1494 232.547 28.1987 231.043 27.0489C229.54 25.8549 228.39 24.3735 227.594 22.6046C226.842 20.8357 226.466 18.8015 226.466 16.502C226.466 12.4778 227.948 9.11694 230.911 6.41941C233.918 3.72188 237.677 2.32889 242.187 2.24045C248.423 2.10778 253.972 4.20832 258.837 8.54206L251.872 17.497C248.201 14.6668 245.217 13.2517 242.917 13.2517C240.706 13.2517 239.6 14.1803 239.6 16.0377C239.6 16.8779 239.998 17.6518 240.794 18.3593C241.59 19.0669 243.116 19.8628 245.371 20.7473C250.28 22.6046 253.508 24.0639 255.056 25.1252C258.372 27.3806 260.031 30.6972 260.031 35.0752C260.031 37.9054 259.478 40.3818 258.373 42.5044C257.311 44.5828 255.874 46.1969 254.061 47.3467C252.248 48.4965 250.346 49.3367 248.356 49.8674C246.411 50.398 244.376 50.6633 242.254 50.6633Z" fill="url(#paint6_linear_661_2)"/>
<path d="M265.178 50V2.90377H283.486C289.146 2.90377 293.413 4.42943 296.288 7.48073C299.162 10.4878 300.599 14.5341 300.599 19.6196C300.599 24.8378 299.007 28.8178 295.824 31.5595C292.64 34.257 288.262 35.6058 282.69 35.6058H277.383V50H265.178ZM277.383 24.7272H280.7C282.778 24.7272 284.436 24.2629 285.675 23.3343C286.913 22.4056 287.532 21.0789 287.532 19.3543C287.532 17.8065 286.935 16.5241 285.741 15.507C284.591 14.4899 282.911 13.9813 280.7 13.9813H277.383V24.7272Z" fill="white"/>
<path d="M265.178 50V2.90377H283.486C289.146 2.90377 293.413 4.42943 296.288 7.48073C299.162 10.4878 300.599 14.5341 300.599 19.6196C300.599 24.8378 299.007 28.8178 295.824 31.5595C292.64 34.257 288.262 35.6058 282.69 35.6058H277.383V50H265.178ZM277.383 24.7272H280.7C282.778 24.7272 284.436 24.2629 285.675 23.3343C286.913 22.4056 287.532 21.0789 287.532 19.3543C287.532 17.8065 286.935 16.5241 285.741 15.507C284.591 14.4899 282.911 13.9813 280.7 13.9813H277.383V24.7272Z" fill="url(#paint7_linear_661_2)"/>
<path fill-rule="evenodd" clip-rule="evenodd" d="M1.98657 49.3585C0.662189 48.0565 0 46.4784 0 44.6219C0 42.8102 0.66752 41.2544 2.00363 39.9524C3.33867 38.6505 4.93496 38 6.79143 38C8.64791 38 10.2378 38.6505 11.5622 39.9524C12.8866 41.2544 13.5487 42.8102 13.5487 44.6219C13.5487 46.4784 12.8866 48.0565 11.5622 49.3585C10.2378 50.6605 8.64791 51.311 6.79143 51.311C4.91257 51.311 3.31094 50.6605 1.98657 49.3585Z" fill="url(#paint8_linear_661_2)"/>
<path fill-rule="evenodd" clip-rule="evenodd" d="M1.98657 49.3585C0.662189 48.0565 0 46.4784 0 44.6219C0 42.8102 0.66752 41.2544 2.00363 39.9524C3.33867 38.6505 4.93496 38 6.79143 38C8.64791 38 10.2378 38.6505 11.5622 39.9524C12.8866 41.2544 13.5487 42.8102 13.5487 44.6219C13.5487 46.4784 12.8866 48.0565 11.5622 49.3585C10.2378 50.6605 8.64791 51.311 6.79143 51.311C4.91257 51.311 3.31094 50.6605 1.98657 49.3585Z" fill="url(#paint9_linear_661_2)"/>
<defs>
<linearGradient id="paint0_linear_661_2" x1="245.111" y1="180.146" x2="3.84301" y2="-33.2582" gradientUnits="userSpaceOnUse">
<stop stop-color="#24F0F1"/>
<stop offset="1" stop-color="#BDFF49"/>
</linearGradient>
<linearGradient id="paint1_linear_661_2" x1="245.111" y1="180.146" x2="3.84301" y2="-33.2582" gradientUnits="userSpaceOnUse">
<stop stop-color="#24F0F1"/>
<stop offset="1" stop-color="#BDFF49"/>
</linearGradient>
<linearGradient id="paint2_linear_661_2" x1="245.111" y1="180.146" x2="3.84301" y2="-33.2582" gradientUnits="userSpaceOnUse">
<stop stop-color="#24F0F1"/>
<stop offset="1" stop-color="#BDFF49"/>
</linearGradient>
<linearGradient id="paint3_linear_661_2" x1="245.111" y1="180.146" x2="3.84301" y2="-33.2582" gradientUnits="userSpaceOnUse">
<stop stop-color="#24F0F1"/>
<stop offset="1" stop-color="#BDFF49"/>
</linearGradient>
<linearGradient id="paint4_linear_661_2" x1="245.111" y1="180.146" x2="3.84301" y2="-33.2582" gradientUnits="userSpaceOnUse">
<stop stop-color="#24F0F1"/>
<stop offset="1" stop-color="#BDFF49"/>
</linearGradient>
<linearGradient id="paint5_linear_661_2" x1="245.111" y1="180.146" x2="3.84301" y2="-33.2582" gradientUnits="userSpaceOnUse">
<stop stop-color="#24F0F1"/>
<stop offset="1" stop-color="#BDFF49"/>
</linearGradient>
<linearGradient id="paint6_linear_661_2" x1="245.111" y1="180.146" x2="3.84301" y2="-33.2582" gradientUnits="userSpaceOnUse">
<stop stop-color="#24F0F1"/>
<stop offset="1" stop-color="#BDFF49"/>
</linearGradient>
<linearGradient id="paint7_linear_661_2" x1="245.111" y1="180.146" x2="3.84301" y2="-33.2582" gradientUnits="userSpaceOnUse">
<stop stop-color="#24F0F1"/>
<stop offset="1" stop-color="#BDFF49"/>
</linearGradient>
<linearGradient id="paint8_linear_661_2" x1="-2.92662e-05" y1="-119.742" x2="1391.52" y2="1370.55" gradientUnits="userSpaceOnUse">
<stop stop-color="#1DFEEF"/>
<stop offset="1" stop-color="#FDED52"/>
</linearGradient>
<linearGradient id="paint9_linear_661_2" x1="11.0487" y1="85.6349" x2="-7.89815" y2="82.7865" gradientUnits="userSpaceOnUse">
<stop stop-color="#24F0F1"/>
<stop offset="1" stop-color="#BDFF49"/>
</linearGradient>
</defs>
</svg>
