<?xml version="1.0" encoding="UTF-8" standalone="no"?>
<!-- Created with Inkscape (http://www.inkscape.org/) -->

<svg
   width="79.540451mm"
   height="13.455639mm"
   viewBox="0 0 79.540451 13.455639"
   version="1.1"
   id="svg1"
   xml:space="preserve"
   xmlns:inkscape="http://www.inkscape.org/namespaces/inkscape"
   xmlns:sodipodi="http://sodipodi.sourceforge.net/DTD/sodipodi-0.dtd"
   xmlns="http://www.w3.org/2000/svg"
   xmlns:svg="http://www.w3.org/2000/svg"><sodipodi:namedview
     id="namedview1"
     pagecolor="#ffffff"
     bordercolor="#666666"
     borderopacity="1.0"
     inkscape:showpageshadow="2"
     inkscape:pageopacity="0.0"
     inkscape:pagecheckerboard="0"
     inkscape:deskcolor="#d1d1d1"
     inkscape:document-units="mm" /><defs
     id="defs1" /><g
     inkscape:label="Layer 1"
     inkscape:groupmode="layer"
     id="layer1"
     transform="translate(-62.541296,-223.15513)"><g
       style="fill:none"
       id="g1"
       transform="matrix(0.26458333,0,0,0.26458333,66.781604,223.15513)"><path
         d="M 2.97919,49.5506 V 26.4668 H 0.0605469 V 17.0475 H 2.97919 v -4.6433 c 0,-4.06838 0.99499,-7.1418 2.98497,-9.22023 C 7.99837,1.06132 10.718,0 14.1231,0 16.1573,0 18.0146,0.309553 19.695,0.928658 21.3755,1.54776 22.5252,2.12265 23.1443,2.65331 L 21.088,10.7459 c -1.0171,-0.6191 -2.1447,-0.92865 -3.3829,-0.92865 -1.9016,0 -2.8524,0.92865 -2.8524,2.78595 v 4.4443 h 5.3067 v 9.4193 h -5.3067 v 23.0838 z"
         fill="#313644"
         id="path1" /><path
         d="m 45.4296,16.3842 h 0.0663 v 12.6695 c -0.6633,-0.0442 -1.5036,-0.0663 -2.5207,-0.0663 -2.211,0 -3.8915,0.5749 -5.0412,1.7247 -1.1056,1.1497 -1.6584,2.6975 -1.6584,4.6433 V 49.5506 H 24.4021 V 17.0475 h 11.8735 v 4.5106 h 0.0664 c 2.3879,-3.4493 5.4171,-5.1739 9.0876,-5.1739 z"
         fill="#313644"
         id="path2" /><path
         d="m 80.6693,33.0337 c 0,1.0613 -0.0884,2.1227 -0.2653,3.184 H 59.1112 c 0.2653,1.5035 0.995,2.6533 2.189,3.4493 1.2382,0.796 2.7417,1.194 4.5106,1.194 2.6975,0 5.1961,-1.194 7.4956,-3.582 l 6.1026,6.7659 c -1.5035,1.8131 -3.5377,3.2946 -6.1026,4.4443 -2.5649,1.1498 -5.4835,1.7247 -8.7559,1.7247 -4.9086,0 -8.977,-1.5699 -12.2052,-4.7096 -3.2282,-3.184 -4.8423,-7.2524 -4.8423,-12.2053 0,-4.9086 1.5698,-8.9549 4.7096,-12.1389 3.184,-3.1839 7.2303,-4.7759 12.1389,-4.7759 4.6875,0 8.579,1.5699 11.6745,4.7096 3.0956,3.0955 4.6433,7.0755 4.6433,11.9399 z M 64.2852,25.4054 c -1.3267,0 -2.4544,0.398 -3.383,1.194 -0.9287,0.7518 -1.5257,1.8131 -1.791,3.184 h 10.0826 c -0.5749,-2.9186 -2.2111,-4.378 -4.9086,-4.378 z"
         fill="#313644"
         id="path3" /><path
         d="m 117.147,33.0337 c 0,1.0613 -0.088,2.1227 -0.265,3.184 H 95.589 c 0.2653,1.5035 0.995,2.6533 2.189,3.4493 1.2382,0.796 2.742,1.194 4.511,1.194 2.697,0 5.196,-1.194 7.495,-3.582 l 6.103,6.7659 c -1.504,1.8131 -3.538,3.2946 -6.103,4.4443 -2.565,1.1498 -5.483,1.7247 -8.756,1.7247 -4.9083,0 -8.9767,-1.5699 -12.2049,-4.7096 -3.2282,-3.184 -4.8423,-7.2524 -4.8423,-12.2053 0,-4.9086 1.5699,-8.9549 4.7096,-12.1389 3.184,-3.1839 7.2303,-4.7759 12.1386,-4.7759 4.688,0 8.579,1.5699 11.675,4.7096 3.095,3.0955 4.643,7.0755 4.643,11.9399 z m -16.384,-7.6283 c -1.3267,0 -2.4543,0.398 -3.383,1.194 -0.9287,0.7518 -1.5257,1.8131 -1.791,3.184 h 10.083 c -0.575,-2.9186 -2.211,-4.378 -4.909,-4.378 z"
         fill="#313644"
         id="path4" /><path
         d="m 161.121,49.5506 h -14.66 l -8.889,-14.3942 h -2.918 V 49.5506 H 122.449 V 2.45431 h 18.838 c 5.705,0 9.994,1.52565 12.869,4.57696 2.874,3.00713 4.311,7.05343 4.311,12.13893 0,6.8101 -2.675,11.4755 -8.026,13.9962 v 0.0663 z M 134.654,13.5319 v 10.7459 h 3.847 c 2.034,0 3.693,-0.4643 4.975,-1.393 1.283,-0.9287 1.924,-2.2553 1.924,-3.98 0,-1.5477 -0.597,-2.8302 -1.791,-3.8473 -1.194,-1.0171 -2.897,-1.5256 -5.108,-1.5256 z"
         fill="#313644"
         id="path5" /><path
         d="m 194.921,49.5506 -2.388,-7.6283 h -15.124 l -2.388,7.6283 h -13.2 L 178.935,2.45431 h 12.072 L 208.055,49.5506 Z M 180.659,31.3754 h 8.623 l -4.245,-13.5982 h -0.132 z"
         fill="#313644"
         id="path6" /><path
         d="m 226.254,50.2139 c -6.722,0 -12.537,-2.5207 -17.446,-7.5619 l 7.164,-8.756 c 3.449,3.4936 7.031,5.2403 10.746,5.2403 1.371,0 2.388,-0.2874 3.051,-0.8623 0.664,-0.6191 0.995,-1.3488 0.995,-2.189 0,-0.9729 -0.398,-1.7689 -1.194,-2.388 -0.751,-0.6191 -2.343,-1.3266 -4.776,-2.1226 -2.122,-0.7076 -3.913,-1.4151 -5.373,-2.1227 -1.415,-0.7517 -2.874,-1.7025 -4.378,-2.8523 -1.503,-1.194 -2.653,-2.6754 -3.449,-4.4443 -0.752,-1.7688 -1.128,-3.803 -1.128,-6.1026 0,-4.0242 1.482,-7.38502 4.445,-10.08255 3.007,-2.69753 6.766,-4.09052 11.276,-4.17897 6.236,-0.13266 11.785,1.96788 16.65,6.30162 l -6.965,8.9549 c -3.671,-2.8302 -6.655,-4.2453 -8.955,-4.2453 -2.211,0 -3.317,0.9287 -3.317,2.786 0,0.8402 0.398,1.6141 1.194,2.3216 0.796,0.7076 2.322,1.5036 4.577,2.388 4.909,1.8573 8.137,3.3167 9.685,4.378 3.316,2.2553 4.975,5.5719 4.975,9.9499 0,2.8302 -0.553,5.3066 -1.658,7.4293 -1.062,2.0784 -2.499,3.6925 -4.312,4.8423 -1.813,1.1497 -3.715,1.9899 -5.705,2.5206 -1.945,0.5307 -3.98,0.796 -6.102,0.796 z"
         fill="#313644"
         id="path7" /><path
         d="M 249.178,49.5506 V 2.45431 h 18.308 c 5.66,0 9.927,1.52565 12.802,4.57696 2.874,3.00713 4.311,7.05343 4.311,12.13893 0,5.2181 -1.592,9.1981 -4.775,11.9399 -3.184,2.6975 -7.562,4.0463 -13.134,4.0463 h -5.307 v 14.3942 z m 12.205,-25.2728 h 3.317 c 2.078,0 3.736,-0.4643 4.975,-1.393 1.238,-0.9287 1.857,-2.2553 1.857,-3.98 0,-1.5477 -0.597,-2.8302 -1.791,-3.8473 -1.15,-1.0171 -2.83,-1.5256 -5.041,-1.5256 h -3.317 z"
         fill="#313644"
         id="path8" /></g><g
       style="fill:none"
       id="g2"
       transform="matrix(0.26458333,0,0,0.26458333,62.541299,233.08278)"><path
         fill-rule="evenodd"
         clip-rule="evenodd"
         d="M 1.99002,11.3783 C 0.663341,10.074 0,8.49311 0,6.63341 0,4.81857 0.668682,3.26009 2.00711,1.95584 3.34448,0.651592 4.94354,0 6.80325,0 c 1.8597,0 3.45235,0.651592 4.77905,1.95584 1.3267,1.30425 1.99,2.86273 1.99,4.67757 0,1.8597 -0.6633,3.44059 -1.99,4.74489 -1.3267,1.3042 -2.91935,1.9558 -4.77905,1.9558 -1.88214,0 -3.48655,-0.6516 -4.81323,-1.9558 z"
         fill="#313644"
         id="path1-4" /></g></g></svg>
